# xmcd CD database file
#
# Track frame offsets:
#	150
#	18365
#	29222
#	45287
#	55582
#	68047
#	80887
#	97102
#	109687
#	125440
#	145607
#	161495
#	176962
#	191660
#	205190
#	219645
#	232062
#	249210
#	263812
#	274245
#	284752
#	301687
#
# Disc length: 4261 seconds
#
# Revision: 2
# Processed by: cddbd v1.5.1PL0 Copyright (c) Steve Scherf et al.
# Submitted via: CDex 1.60beta1
#
DISCID=4610a316
DTITLE=Aretha Franklin - Greatest Hits - Disc 1
DYEAR=1998
DGENRE=Jazz
TTITLE0=with George Michael - I Knew You Were Waiting (For Me)
TTITLE1=Respect
TTITLE2=I Say A Little Prayer
TTITLE3=Think
TTITLE4=(You Make Me Feel) Like A Natural Woman
TTITLE5=I Never Loved A Man (The Way I Loved You)
TTITLE6=You Are All I Need To Get By
TTITLE7=Chain Of Fools
TTITLE8=Spanish Harlem
TTITLE9=Angel
TTITLE10=Let It Be
TTITLE11=Until You Come Back To Me (That's What I'm Gonna Do)
TTITLE12=Son Of A Preacher Man
TTITLE13=Don't Play That Song (You Lied)
TTITLE14=Rock Steady
TTITLE15=See Saw
TTITLE16=Ain't Nothing Like The Real Thing
TTITLE17=Do Right Woman, Do Right Man
TTITLE18=Save Me
TTITLE19=The House That Jack Built
TTITLE20=People Get Ready
TTITLE21=Day Dreaming
EXTD=YEAR: 1998
EXTT0=
EXTT1=
EXTT2=
EXTT3=
EXTT4=
EXTT5=
EXTT6=
EXTT7=
EXTT8=
EXTT9=
EXTT10=
EXTT11=
EXTT12=
EXTT13=
EXTT14=
EXTT15=
EXTT16=
EXTT17=
EXTT18=
EXTT19=
EXTT20=
EXTT21=
PLAYORDER=
